# File created by Blade
# Date/Time:  Mon Nov 18 17:26:10 2013
# Frame Rate: 100.000 fps
#------------------------------------------------------
:FULLY-SPECIFIED
:DEGREES
19
root -34.172081 -0.951240 41.917746 5.438017 -0.465758 25.232392
Spine 18.603177 -0.013401 0.747127
Spine1 6.606264 0.259901 2.476374
Spine2 -22.514929 0.982321 1.444144
NeckDummy 0.012485 0.472670 0.994569 12.968072 -1.750520 1.762406
Neck 6.016724 -9.248197 46.739669
Head 0.252400 -0.227487 -0.146880 0.905581 1.474854 0.962358
LeftShoulderDummy -0.006212 0.516368 1.032915 12.964404 -1.827531 1.897868
LeftShoulder 7.190910 -7.824863 19.363384
LeftArm 6.678332 41.886352 19.247679
LeftForeArm 56.669638
LeftForeArmRoll 14.639420
LeftHand -34.134646 -23.471090 8.957986
LeftHandThumb1 14.996523 3.870433
LeftHandIndex1 -2.290560 40.011866
LeftHandPinky1 -0.446934 59.603891
RightShoulderDummy -0.000506 0.446415 0.950987 12.953596 1.792478 -1.779925
RightShoulder 12.846926 4.292801 12.053759
RightArm -9.976327 57.919241 13.508800
RightForeArm 104.330580
RightForeArmRoll 37.898277
RightHand -43.759368 -17.530421 12.320365
RightHandThumb1 11.441248 12.455277
RightHandIndex1 5.943812 48.800262
RightHandPinky1 9.797116 63.473605
LeftUpLeg 2.576844 9.143372 -26.004271
LeftLeg 55.373934
LeftFoot -0.200473 -0.981661 -1.804393 -18.093081 5.942139 -13.648450
LeftToeBase -14.986046
RightUpLeg -17.859910 6.150211 -33.674108
RightLeg 36.966022
RightFoot -0.428283 0.640788 0.728617 -14.463237 3.267508 -15.808130
RightToeBase -8.951754
20
root -34.290630 -0.999476 41.797970 5.424621 -0.864019 24.467679
Spine 18.720653 -0.058296 0.662390
Spine1 6.619596 0.285890 2.312703
Spine2 -22.540954 1.111311 1.308136
NeckDummy 0.020496 0.477114 1.000294 12.904844 -1.618262 1.610823
Neck 5.745951 -8.934895 47.012349
Head 0.251930 -0.227118 -0.121050 0.618822 1.414679 1.015979
LeftShoulderDummy 0.002863 0.518183 1.035763 12.900144 -1.690136 1.727419
LeftShoulder 7.058340 -7.413346 19.192118
LeftArm 6.954804 41.863973 18.979390
LeftForeArm 56.868079
LeftForeArmRoll 14.415389
LeftHand -33.899445 -23.074592 8.941914
LeftHandThumb1 15.352403 3.385947
LeftHandIndex1 -2.647314 40.326724
LeftHandPinky1 -0.751795 59.881442
RightShoulderDummy 0.008124 0.454890 0.959426 12.889085 1.656741 -1.616461
RightShoulder 12.666290 3.880628 12.203675
RightArm -9.682088 57.540169 13.704554
RightForeArm 104.277080
RightForeArmRoll 37.139286
RightHand -43.876994 -17.504330 11.822561
RightHandThumb1 11.476818 11.825882
RightHandIndex1 5.753192 47.604646
RightHandPinky1 9.642710 62.873313
LeftUpLeg 1.584658 8.711993 -24.374861
LeftLeg 53.074544
LeftFoot -0.241768 -1.017275 -1.805298 -17.957924 8.443285 -16.870363
LeftToeBase -12.558558
RightUpLeg -16.875651 5.844094 -34.453567
RightLeg 37.375470
RightFoot -0.440218 0.671058 0.731970 -14.647876 2.681556 -15.637821
RightToeBase -9.350869
21
root -34.416977 -1.057600 41.668409 5.470142 -1.177262 23.826394
Spine 18.839345 -0.214617 0.533301
Spine1 6.627884 0.283118 2.003222
Spine2 -22.568438 1.234701 1.331974
NeckDummy 0.025498 0.480624 1.006983 12.818645 -1.607085 1.611254
Neck 5.550870 -8.789582 47.337919
Head 0.247981 -0.226860 -0.089094 0.211309 1.426640 0.949167
LeftShoulderDummy 0.007652 0.522896 1.042136 12.811668 -1.678460 1.727478
LeftShoulder 7.033592 -7.183381 19.146085
LeftArm 7.199326 41.719488 18.838639
LeftForeArm 57.095772
LeftForeArmRoll 14.819037
LeftHand -34.360343 -23.241290 8.933786
LeftHandThumb1 15.411365 3.765525
LeftHandIndex1 -2.250592 41.039416
LeftHandPinky1 -0.447003 60.120993
RightShoulderDummy 0.013654 0.459558 0.966289 12.800872 1.643604 -1.612090
RightShoulder 12.486906 3.655781 12.319410
RightArm -9.259269 57.289363 14.108943
RightForeArm 104.236125
RightForeArmRoll 36.286424
RightHand -43.854352 -17.885716 11.483188
RightHandThumb1 11.837206 11.411014
RightHandIndex1 5.232589 47.156373
RightHandPinky1 8.752846 62.445247
LeftUpLeg 0.711325 8.233875 -23.030911
LeftLeg 51.211583
LeftFoot -0.256378 -0.978328 -1.733264 -17.293137 10.696138 -19.477532
LeftToeBase -10.612352
RightUpLeg -15.803229 5.697955 -35.371870
RightLeg 37.921116
RightFoot -0.422583 0.691695 0.727802 -14.801045 2.324649 -15.425558
RightToeBase -9.738869
22
root -34.553668 -1.122051 41.524348 5.559776 -1.455750 23.315589
Spine 18.981066 -0.411417 0.386898
Spine1 6.656988 0.298266 1.690388
Spine2 -22.682433 1.377634 1.311009
NeckDummy 0.032307 0.478138 1.016005 12.806857 -1.568334 1.587734
Neck 5.262284 -8.664274 47.631676
Head 0.245760 -0.220257 -0.060661 -0.156274 1.414797 0.937715
LeftShoulderDummy 0.014044 0.520553 1.050212 12.798058 -1.639917 1.702606
LeftShoulder 6.975688 -6.937758 19.015149
LeftArm 7.515016 41.493508 18.720841
LeftForeArm 57.437135
LeftForeArmRoll 14.931407
LeftHand -34.348328 -23.037261 8.808141
LeftHandThumb1 15.882667 3.186318
LeftHandIndex1 -2.536045 41.327696
LeftHandPinky1 -0.687975 60.585099
RightShoulderDummy 0.021180 0.458327 0.975995 12.787127 1.602539 -1.586383
RightShoulder 12.194328 3.462981 12.405938
RightArm -8.984420 57.185299 14.466006
RightForeArm 104.149673
RightForeArmRoll 35.018269
RightHand -43.974511 -18.220909 11.216563
RightHandThumb1 12.046930 10.581597
RightHandIndex1 4.607119 46.373438
RightHandPinky1 7.853585 62.077454
LeftUpLeg 0.136614 7.875817 -22.048718
LeftLeg 49.518624
LeftFoot -0.278667 -0.969357 -1.678013 -15.934613 12.837312 -21.923267
LeftToeBase -8.393908
RightUpLeg -14.521313 5.663697 -36.443581
RightLeg 38.680840
RightFoot -0.396838 0.717425 0.730204 -14.634693 2.424548 -15.270749
RightToeBase -10.114967
23
root -34.695028 -1.194560 41.375619 5.683863 -1.681388 22.979989
Spine 19.072080 -0.623136 0.215689
Spine1 6.678171 0.308454 1.278768
Spine2 -22.705004 1.520085 1.385055
NeckDummy 0.038575 0.475150 1.018323 12.785727 -1.602688 1.649714
Neck 5.089685 -8.637638 47.943996
Head 0.230555 -0.207763 -0.029860 -0.552742 1.305267 0.821762
LeftShoulderDummy 0.020359 0.519279 1.052867 12.776012 -1.674782 1.764321
LeftShoulder 7.093942 -6.893751 18.851826
LeftArm 8.093551 41.035146 18.867785
LeftForeArm 57.794246
LeftForeArmRoll 14.872921
LeftHand -34.117084 -23.007554 8.477366
LeftHandThumb1 15.932602 3.207412
LeftHandIndex1 -2.545328 41.691434
LeftHandPinky1 -0.608909 60.953673
RightShoulderDummy 0.027570 0.454656 0.977343 12.764386 1.638373 -1.652221
RightShoulder 11.847532 3.429229 12.452859
RightArm -8.742231 57.225691 14.913713
RightForeArm 104.027214
RightForeArmRoll 33.410658
RightHand -44.148701 -18.903749 11.009316
RightHandThumb1 11.959867 9.664357
RightHandIndex1 4.484455 45.097917
RightHandPinky1 7.542705 61.803727
LeftUpLeg -0.360244 7.551711 -21.395117
LeftLeg 48.009761
LeftFoot -0.306199 -0.954652 -1.664211 -14.267702 14.782010 -24.077679
LeftToeBase -5.945829
RightUpLeg -13.071506 5.799186 -37.585788
RightLeg 39.650044
RightFoot -0.371969 0.742692 0.725536 -14.270965 3.055717 -15.247515
RightToeBase -10.398798
